/* XPM */
static char *cp437[] = {
/* columns rows colors chars-per-pixel */
"96 192 2 1 ",
"  c black",
". c white",
/* pixels */
".... ...........................................      ......      ..............................",
".... ...........................................      ......      ..............................",
".   ...   ...   .......... ....   .... .........      ......      ...   .............  ..... ...",
" ..  . ... .     .. . .... ....   .... ....   ..      .   ..      ....  ........  ... . .. . . .",
" . . .  .  . . . .     ..   .... ....   ..     .  ..   ... .  ..  .   . .   .... . .. .. .. . ..",
" . . . ... .     .     ..   ..     .     .     . ....  ... . .  .  ... . ... ... .... .. . ... .",
" . . .  .  . . . ..   ..     .     .     .     . ....  ... . .  .  ... . ... ..  ...  .. .. . ..",
"  .. . . . .  .  ... ....   ..     ..   ...   ..  ..  .   ..  ..   ... . ... .   ...  .  . . . .",
".   ...   ...   .........   .... ..... .........      ......      .   ...   ...  ......  ... ...",
" ......................... ....   ...   ........      ......      ........ .....................",
" ......................... .....................      ......      .......   ....................",
".......................................................................... .....................",
"................................................................................................",
".........................     .   ..............................................................",
".............. .... . ..   . . ... ......... ...................................................",
"  ........  .   ... . ..   . .. .. ........   .... ..... ..... ..... ................. ...     .",
"    ....     . . .. . ..   . . . ......... . . ..   .... ...... ... .... ....... ..... ...     .",
"            .. .... . ...    . .. .......... ... . . . . . .     .     . ...... .....   ...   ..",
"    ....     . . .. . .... . .. .. .     . . . ... ....   ..... ... .... ..... ......   ...   ..",
"  ........  .   .......... . ... . .     ..   .... ..... ..... ..... ... ......          ... ...",
".............. .... . .... . . .. ..     .     .........................     ... ...     ... ...",
".......................... .   ... .............................................................",
"...............................   ..............................................................",
"................................................................................................",
"................................................................................................",
"............. . .......... ................. ...... ... ...................................... .",
"........ .... . .........   ... .. ..  ..... ..... ..... ..................................... .",
"........ .... . ... . .. . . . . . . .. .... ..... ..... ..... ..... ........................ ..",
"........ .........     . . .... . .. . .......... ....... .. . . ... ........................ ..",
"........ .......... . ...   .... .... ........... ....... ...   ..     .......     ......... ...",
"........ .........     ... . .. . .. . . ........ ....... .. . . ... ....................... ...",
"................... . .. . . . . . . .. .......... ..... ..... ..... .....  ..........  ... ....",
"........ ................   .. .. ...  . ......... ..... .................  ..........  ... ....",
".......................... ........................ ... ................... .............. .....",
".......................................................................... ............... .....",
"................................................................................................",
"................................................................................................",
"................................................................................................",
".   .... ....   ...   ..... ..     ..   ..     ..   ...   .................. ........ .....   ..",
" ... ..  ... ... . ... ...  .. ..... ......... . ... . ... ...  ....  ..... .......... ... ... .",
" ..  ... ....... ..... .. . ..    ..    ...... . ... . ... ...  ....  .... ...     .... ...... .",
" . . ... ...... ....  .. .. ...... . ... .... ...   .. ... .............. .............. .... ..",
"  .. ... ..... ....... .     ..... . ... ... ... ... ..    ............... ...     .... .... ...",
" ... ... .... .... ... .... .. ... . ... ... ... ... ..... ...  ....  ..... .......... .........",
".   ...   ..     ..   ....   ..   ...   .... ....   ...   ....  ....  ...... ........ ...... ...",
"..................................................................... ..........................",
".................................................................... ...........................",
"................................................................................................",
"................................................................................................",
"................................................................................................",
".   ...   ..    ...   ..    ..     .     ..   .. ... ..   ...... . ... . ..... ... .  .. ..   ..",
" ... . ... . ... . ... . ... . ..... ..... ... . ... ... ....... . .. .. .....  .  .  .. . ... .",
" .   . ... . ... . ..... ... . ..... ..... ..... ... ... ....... . . ... ..... . . . . . . ... .",
" . . .     .    .. ..... ... .    ..    .. ..  .     ... ....... .  .... ..... ... . . . . ... .",
" .   . ... . ... . ..... ... . ..... ..... ... . ... ... ... ... . . ... ..... ... . . . . ... .",
" ..... ... . ... . ... . ... . ..... ..... ... . ... ... ... ... . .. .. ..... ... . ..  . ... .",
".    . ... .    ...   ..    ..     . ......   .. ... ..   ...   .. ... .     . ... . ..  ..   ..",
"................................................................................................",
"................................................................................................",
"................................................................................................",
"................................................................................................",
"...................................................................   .. ......   .... .........",
"    ...   ..    ...   ..     . ... . ... . ... . ... . ... .     .. .... ........ ... . ........",
" ... . ... . ... . ... ... ... ... . ... . ... . ... . ... ..... .. ..... ....... .. ... .......",
" ... . ... . ... . ....... ... ... . ... . ... .. . .. ... .... ... ..... ....... ..............",
"    .. ... .    ...   .... ... ... .. . .. . . ... .... . .... .... ...... ...... ..............",
" ..... ... . ... ..... ... ... ... .. . .. . . .. . .... .... ..... ...... ...... ..............",
" ..... ... . ... . ... ... ... ... ... .... . .. ... ... ... ...... ....... ..... ..............",
" ......   .. ... ..   .... ....   .... .... . .. ... ... ...     .. ....... ..... ........     .",
".......... ........................................................   ...... ..   ..............",
"............................................................................ ...................",
"................................................................................................",
"................................................................................................",
". ..............................................................................................",
".. ......... ............... .........  ........ ....... ..... ... ......  .....................",
"... ........ ............... ........ .......... ................. ....... .....................",
".......   ..    ...   ...    ..   ... .....    .    ...  ....  ... .. .... ...    .. .  ...   ..",
".......... . ... . ... . ... . ... .   ... ... . ... ... ..... ... . ..... ... . . .  .. . ... .",
".......    . ... . ..... ... .     .. .... ... . ... ... ..... ...   ..... ... . . . ... . ... .",
"...... ... . ... . ..... ... . ...... .... ... . ... ... ..... ... .. .... ... . . . ... . ... .",
".......    .    ...    ..    ..    .. .....    . ... ...  .... ... ... ...  .. . . . ... ..   ..",
".............................................. ............... .................................",
"...........................................   ..............  ..................................",
"................................................................................................",
"................................................................................................",
".....................................................................  ... ...  ................",
".......................... ......................................... ..... ..... ...............",
".......................... ......................................... ..... ..... ........... ...",
"    ...    . .  ...    ..    . ... . ... . ... . ... . ... .     ... ..... ..... ....  . .. . ..",
" ... . ... .  .. . ....... ... ... . ... . . . .. . .. ... .... ..  ...... ......  . .  .. ... .",
" ... . ... . ......   .... ... ... .. . .. . . ... ... ... ... ..... ..... ..... ......... ... .",
" ... . ... . ......... ... ... ..  .. . .. . . .. . .. ... .. ...... ..... ..... ......... ... .",
"    ...    . .....    .....  ..  . ... .... . .. ... ..    .     ... ..... ..... .........     .",
" ......... ............................................... ..........  ... ...  ................",
" ......... ............................................   ................ .....................",
"................................................................................................",
"...................................... .............................................. . .... ...",
"............... .... ........... .... . .......... .......... ............ .... ........... . ..",
".   ... . .... .... . ... . ..... .... .......... . ... . .... .... . ... . .... ....   ...   ..",
" ... ............................................................................... ... . ... .",
" ..... ... ..   ...   ...   ...   ...   ...   ...   ...   ...   ...  ....  ....  ... ... . ... .",
" ..... ... . ... ..... ..... ..... ..... . ... . ... . ... . ... ... ..... ..... ...     .     .",
" ..... ... .     ..    ..    ..    ..    . .....     .     .     ... ..... ..... ... ... . ... .",
" ... . ..  . ..... ... . ... . ... . ... . ..... ..... ..... ....... ..... ..... ... ... . ... .",
".   ...  . ..    ..    ..    ..    ..    ..    ..    ..    ..    ...  ....  ....  .. ... . ... .",
".. ......................................... ...................................................",
". ......................................... ....................................................",
"................................................................................................",
"... ................................................... . ... . .............................  .",
".. ................. .......... ...... .... ..............................  ................ ...",
"     ........    .. . ... . .... .... . .... .... . ...   .. ... ........ .. . ... ..    ... ...",
" ........... . ....................................... ... . ... ... .... .... ... .. .. . . ...",
" ......   .. . ....   ...   ...   .. ... . ... . ... . ... . ... ..   ..   .... . ... ...      .",
"    .. . . .    .. ... . ... . ... . ... . ... . ... . ... . ... . . . .. ....     ..    . . ...",
" ..... .   . . ... ... . ... . ... . ... . ... . ... . ... . ... . . .... ...... .... .... .   .",
" ..... . ... . ... ... . ... . ... . ..  . ..  . ... . ... . ... . . . .. .. .     .. ....   . .",
"     ..    . .   ..   ...   ...   ...  . ..  . ..    ..   ...   ...   .. .  .... .... ....     .",
".................................................... ............... ........... .........  ....",
".................................................   ............................................",
"................................................................................................",
"...............................  . .............................................................",
"... ..... ..... ..... ...  . . .  ..............................................................",
".. ..... ..... ..... ... .  .. ... ...   ...  .... ...............  ....  ...... ...............",
"..............................  .. .. .. .. .. .................... .. .. .. ...................",
".   ...  ....   .. ... . .  .. . . .. .  .. .. ... ................ . ... . .... .... .. . .. ..",
".... ... ... ... . ... .  .. . ..  ... . ...  ... ....     .     ...  .... . ... ... .. ... .. .",
".    ... ... ... . ... . ... . ... ............. ..... ......... .. .. .. .  ... ... .. ... .. .",
" ... ... ... ... . ..  . ... . ... ..    ..    . ... . ......... . .. .. .   ... .... .. . .. ..",
".    ...  ...   ...  . . ... . ... ..............   ................   ..... ... ...............",
"................................................................................................",
"................................................................................................",
"................................................................................................",
" . . . . . .      .. ..... ..... .... . ............... . ... . ......... . ... . .... .........",
"....... . .  . . ... ..... ..... .... . ............... . ... . ......... . ... . .... .........",
" . . . . . .      .. ..... ..... .... . ............... . ... . ......... . ... . .... .........",
"....... . .  . . ... ..... ..... .... . ............... . ... . ......... . ... . .... .........",
" . . . . . .      .. ..... ...   .... . ........   ...  . ... . ..    ..  . ... . ..   .........",
"....... . .  . . ... ...   ..... ...  . ..    .... ...... ... . ..... ..... ..    .... ...   ...",
" . . . . . .      .. ..... ...   .... . ... . ..   ...  . ... . ..  . ..    ........   ..... ...",
"....... . .  . . ... ..... ..... .... . ... . .... .... . ... . ... . ...................... ...",
" . . . . . .      .. ..... ..... .... . ... . .... .... . ... . ... . ...................... ...",
"....... . .  . . ... ..... ..... .... . ... . .... .... . ... . ... . ...................... ...",
" . . . . . .      .. ..... ..... .... . ... . .... .... . ... . ... . ...................... ...",
"....... . .  . . ... ..... ..... .... . ... . .... .... . ... . ... . ...................... ...",
".. ..... ........... ........... ..... .... . ... . ......... . ......... . ......... . .... ...",
".. ..... ........... ........... ..... .... . ... . ......... . ......... . ......... . .... ...",
".. ..... ........... ........... ..... .... . ... . ......... . ......... . ......... . .... ...",
".. ..... ........... ........... ..... .... . ... . ......... . ......... . ......... . .... ...",
".. ..... ........... ........... .....    . . ... .   .       .         . .           .        .",
"..                ..                .. .... .   . ..... ................. ......................",
".............. ..... ........... .....    . . ...     . .           .   . .           .        .",
".............. ..... ........... ..... .... . ......... . ......... . ... . ......... . ........",
".............. ..... ........... ..... .... . ......... . ......... . ... . ......... . ........",
".............. ..... ........... ..... .... . ......... . ......... . ... . ......... . ........",
".............. ..... ........... ..... .... . ......... . ......... . ... . ......... . ........",
".............. ..... ........... ..... .... . ......... . ......... . ... . ......... . ........",
". . ............... . .... ................ . .... ..... .........      ......   ......        .",
". . ............... . .... ................ . .... ..... .........      ......   ......        .",
". . ............... . .... ................ . .... ..... .........      ......   ......        .",
". . ............... . .... ................ . .... ..... .........      ......   ......        .",
". . ..      ....... . ....    ..    ....... . ..      .. .........      ......   ......        .",
"      ......      .     .. ..... ....       .   ......   .....          ......   ......        .",
"......      . . ..........    ..    . . ... . ..      ........ ...               ......   ......",
"........ .... . ................ .... . ... . .... ........... ...               ......   ......",
"........ .... . ................ .... . ... . .... ........... ...               ......   ......",
"........ .... . ................ .... . ... . .... ........... ...               ......   ......",
"........ .... . ................ .... . ... . .... ........... ...               ......   ......",
"........ .... . ................ .... . ... . .... ........... ...               ......   ......",
"................................................................................................",
".......   ........................................................     .........................",
"...... ... .     .......     ..................... ....   ...   ... ............................",
"...... ... . ........... ........................   .. ... . ... ... ......................   ..",
".  . .    .. .....     .. .....    . .. ..     . . . . ... . ... ..   ... . .. .  ...   .. ... .",
" ..  . ... . ...... . .... ... .. .. .. .... ... . . .     . ... . ... . . . . . . . ... . ... .",
" ... . ... . ...... . ... .... ... . .. .... ... . . . ... . ... . ... . . . . . . ..  ... ... .",
" ..  .  .. . ...... . .. ..... ... . .. .... ....   .. ... .. . .. ... .. . .. . . . ... . ... .",
".  . . .  .. ...... .. .     ..   ..   . .... .... ....   ..  .  ..   .........   ...   .. ... .",
".................................... ........................................... ...............",
".................................... ........................................... ...............",
"................................................................................................",
"..................................................  ............................................",
"........................... ... ................. .. ..........................  ............  .",
"........ ...  .......  ... . .. ................. .. ................. .......... .......... ...",
"     ... .....  ...  ..... .... ...... ...........  .................. ..  ..... ...      ..  ..",
"......     ..... . ....... .... ...........  . ........  ............. .. . ... ....      .... .",
"     ... .....  ...  ..... .... ....     . .. ........    ....  ..... ... . ...   ..      ..  ..",
"........ ...  .......  ... .... ...........  . .......    ....  ..  . ..............      ......",
"     ..................... .... ...... ... .. .........  .......... . ..............      ..   .",
"......     .     .     ... .... .................................... ...............      .. . .",
".......................... .... .................................... .......................  ..",
".......................... ... ............................................................. ...",
"................................................................................................"
};
