/* XPM */
static char *tools[] = {
/* columns rows colors chars-per-pixel */
"32 80 5 1 ",
"  c black",
". c #9B9B9B",
"X c #808080",
"o c white",
"O c None",
/* pixels */
"OOOOOOOOOOOOOOOOOOOOOOOOOOOOOOOO",
"OOOOOOOOOOOOOOOOOOOOOOOOOOOOOOOO",
"OOOOOOOOOOOOO  OO  OOOOOOOOOOOOO",
"OOOOOOOOOOO  o OO o O OOOOOOOOOO",
"OOOOOOOOOO oo OOOO o  OOOOOOOOOO",
"OOOOOOOOO o o OOOOO  o OOOOOOOOO",
"OOOOOOOO ooo OOOOO  ooo OOOOOOOO",
"OOOOOOO ooo OOOOOOOO ooo OOOOOOO",
"OOOOOO ooo OOOOOOOOOO ooo OOOOOO",
"OOOOO ooo OOOOOOOOOOOO ooo OOOOO",
"OOOO ooo OOOOOOOOOOOOOO o o OOOO",
"OOO ooo OOOOOOOOOOOOOOOO o  OOOO",
"OO ooo OOOOOOOOOOOOOOOO       OO",
"OOO o OOOOOOOOOOOOOOOO         O",
"OOOO OOOOOOOOOOOOOOOOOO       OO",
"OOOOOOOOOOOOOOOOOOOOOOOOOOOOOOOO",
"OOOOOOOOOOOOOOOOOOOOOOOOOOOOOOOO",
"OOOOOOOOOOOOOOOOOOOOOOOOOOOOOOOO",
"OOOO    O OOOOOOOOOO    O OOOOOO",
"OOO OOOO o OOOOOOOO OOOO   OOOOO",
"OOO OOO o o OOOOOOO OOO o   OOOO",
"OOO OO ooo o OOOOOO OO o.o   OOO",
"OOOO  oo  o o OOOOOO  o.  o   OO",
"OOOO o  ooo o OOOOOO o  .o.   OO",
"OOO ooooooo o OOOOO o.o.o.o   OO",
"OO ooooooo  o OOOO o.o.o.o    OO",
"O ooooooo O o OOO o.o.o.o O   OO",
"OO ooooo OO o OOOO o.o.o OO   OO",
"OOO ooo OOOO OOOOOO o.o OOOO OOO",
"OOOO o OOOOOOOOOOOOO o OOOOOOOOO",
"OOOOO OOOOOOOOOOOOOOO OOOOOOOOOO",
"OOOOOOOOOOOOOOOOOOOOOOOOOOOOOOOO",
"OOOOOOOOOOOOOOOOOOOOOOOOOOOOOOOO",
"OOOOOOOOO OOOOOOOOOOOOOOOOOOOOOO",
"OOOOOOOO o OOOOOOO      OOOOOOOO",
"OOOOOOO ooo OOOOO  ooooo OOOOOOO",
"OOOOOO  oooo OOOO o ooooo OOOOOO",
"OOOOO    oooo OOO oo ooooo OOOOO",
"OOOOO     oooo OO ooo ooooo OOOO",
"OOOOO      oo OOOO ooo ooooo OOO",
"OOOOO        OOOOOO ooo ooooo OO",
"OOOO oo     OOOOOOOO ooo      OO",
"OOO ooo    OOOOOOOOOO oo oooo OO",
"OO ooo OOOOOOOOOOOOOOO oo oooo O",
"O ooo OOOOOOOOOOOOOOOOO o oooo O",
"OO o OOOOOOOOOOOOOOOOOOO       O",
"OOO OOOOOOOOOOOOOOOOOOOOOOOOOOOO",
"OOOOOOOOOOOOOOOOOOOOOOOOOOOOOOOO",
"OOOOOOOOOOOOOOOOOOOOOOOOOOOOOOOO",
"O O O O O O O OOO  OOOOOOOOOOOOO",
"OO.O.O.O.O.O.O OO   OOOOOOOOOOOO",
"O O O O O O O.OOOO   OOOOOOOOOOO",
"OO.OOOOOOOOO O OOOO   OOOOOOOOOO",
"O O OOOOOOOOO.OOOOOO   OOOOOOOOO",
"OO.OOOOOOOOO O OOOOOO   OOOOOOOO",
"O O OOOOOOOOO.OOOOOOOO   OOOOOOO",
"OO.OOOOOOOOO O OOOOOOOO   OOOOOO",
"O O OOOOOOOOO.OOOOOOOOOO   OOOOO",
"OO.OOOOOOOOO O OOOOOOOOOO   OOOO",
"O O OOOOOOOOO.OOOOOOOOOOOO   OOO",
"OO.O O O O O O OOOOOOOOOOOO   OO",
"O O.O.O.O.O.O.OOOOOOOOOOOOOO   O",
"OO O O O O O O OOOOOOOOOOOOOO  O",
"OOOOOOOOOOOOOOOOOOOOOOOOOOOOOOOO",
"OOOOOOOOOOOOOOOOOOOOOOOOOOOOOOOO",
"OOOOOOOOOOOOOOOOOOOOOOOOOOOOOOOO",
"OO            OOOOO          OOO",
"OO            OOOO .......... OO",
"OO  OOOOOOOO  OOOO .......... OO",
"OO  OOOOOOOO  OOOO ...    ... OO",
"OO  OOOOOOOO  OOOOO    XX    OOO",
"OO  OOOOOOOO  OOOOOOOO XX OOOOOO",
"OO  OOOOOOOO  OOOOOOOO XX OOOOOO",
"OO  OOOOOOOO  OOOOO    XX    OOO",
"OO  OOOOOOOO  OOOO oo XXXX oo OO",
"OO  OOOOOOOO  OOOO ooo XX ooo OO",
"OO            OOOO oooo  oooo OO",
"OO            OOOOO          OOO",
"OOOOOOOOOOOOOOOOOOOOOOOOOOOOOOOO",
"OOOOOOOOOOOOOOOOOOOOOOOOOOOOOOOO"
};
